<svg viewBox="0 0 17 17" fill="none" xmlns="http://www.w3.org/2000/svg" xmlns:xlink="http://www.w3.org/1999/xlink" x="0" y="0"><path id="Vector" d="M6.562,0c-3.578,0 -6.562,2.657 -6.562,6.023c0,1.722 0.873,3.222 2.112,4.318c-0.08,0.582 -0.299,1.131 -0.636,1.594c-0.137,0.19 -0.28,0.375 -0.43,0.553c-0.077,0.088 -0.146,0.185 -0.205,0.288c-0.038,0.066 -0.096,0.14 -0.123,0.289c-0.027,0.148 0.01,0.391 0.123,0.575l0.082,0.155l0.164,0.089c0.574,0.309 1.194,0.255 1.764,0.088c0.568,-0.167 1.116,-0.453 1.64,-0.753c0.524,-0.3 1.022,-0.612 1.415,-0.841c0.055,-0.032 0.09,-0.04 0.143,-0.067c1.035,1.536 2.93,2.569 5.045,2.569c0.02,0.003 0.039,0 0.061,0c0.853,0 3.609,3.042 5.25,1.838c0.065,-0.283 -1.442,-0.992 -1.518,-3.1c1.284,-0.98 2.113,-2.438 2.113,-4.052c0,-2.39 -1.756,-4.364 -4.101,-5.071c-0.742,-2.607 -3.323,-4.495 -6.337,-4.495zM6.562,1.417c2.984,0 5.249,2.161 5.249,4.606c0,2.444 -2.265,4.605 -5.249,4.605c-0.533,0 -0.839,0.236 -1.272,0.488c-0.433,0.252 -0.93,0.564 -1.415,0.841c-0.419,0.24 -0.82,0.424 -1.189,0.553c0.359,-0.559 0.734,-1.296 0.8,-2.324l0.021,-0.399l-0.308,-0.243c-1.169,-0.885 -1.887,-2.159 -1.887,-3.521c0,-2.445 2.266,-4.606 5.25,-4.606z" fill="currentColor"/></svg>